<svg id="Layer_1" data-name="Layer 1" xmlns="http://www.w3.org/2000/svg" width="330.46" height="93.53" viewBox="0 0 330.46 93.53"><defs><style>.cls-1{fill:#6bc4a1;}</style></defs><title>data</title><path class="cls-1" d="M4.32,91.17l57.19-85H18.62L14.74,21.92H9.38L14.3,1.37H67.76L69.1,3.9l-60.31,90Z" transform="translate(-4.32 -0.63)"/><path class="cls-1" d="M62.25,70.62a5.92,5.92,0,0,1,6-6.11,6.18,6.18,0,0,1,0,12.36A6,6,0,0,1,62.25,70.62Z" transform="translate(-4.32 -0.63)"/><path class="cls-1" d="M85.63,70.77H103.5L118.1,7.48l-17.87,4.62V6.73l23.08-6.11,1.79,1-15.93,69.1h17.57l-1.19,4.91H84.44Z" transform="translate(-4.32 -0.63)"/><path class="cls-1" d="M138.79,70.77h17.87L171.26,7.48l-17.87,4.62V6.73l23.08-6.11,1.79,1-15.94,69.1H179.9l-1.19,4.91H137.6Z" transform="translate(-4.32 -0.63)"/><path class="cls-1" d="M193.3,70.62a5.92,5.92,0,0,1,6-6.11,6.18,6.18,0,0,1,0,12.36A6,6,0,0,1,193.3,70.62Z" transform="translate(-4.32 -0.63)"/><path class="cls-1" d="M216.68,70.77h17.87L249.14,7.48l-17.87,4.62V6.73l23.08-6.11,1.79,1-15.94,69.1h17.57l-1.19,4.91h-41.1Z" transform="translate(-4.32 -0.63)"/><path class="cls-1" d="M268.05,78.81c0-3.13,1.94-5.81,5.06-5.81a4.46,4.46,0,0,1,4.77,4.47,4.57,4.57,0,0,1-2.83,4.47c2.08,3.72,8.49,7.15,17.57,7.15,14.74,0,27.4-11.62,27.4-27,0-12.51-8.34-19.06-21.45-19.06a40.13,40.13,0,0,0-17.72,4l-2.23-1.49L293.22,1.37h41.55l-1,5.36H296.65L285.48,40.39a40.46,40.46,0,0,1,14.45-2.53c15.49,0,26.06,9.38,26.06,23.83,0,17.87-15.49,32.47-33.66,32.47C279.08,94.15,268.05,86.56,268.05,78.81Z" transform="translate(-4.32 -0.63)"/></svg>