<svg id="Layer_1" data-name="Layer 1" xmlns="http://www.w3.org/2000/svg" width="313" height="313" viewBox="0 0 313 313"><defs><style>.cls-1{fill:none;stroke:#6bc4a1;stroke-miterlimit:10;stroke-width:5px;}.cls-2{fill:#6bc4a1;}</style></defs><title>logo</title><circle class="cls-1" cx="156.5" cy="156.5" r="154"/><path class="cls-2" d="M51,151.84H62.4L80.49,73.62H67.58L68.78,69H95.52c15.7,0,26.34,3.86,34.19,11.84,5.72,5.59,9.18,14.1,9.18,24.08,0,14.1-4.92,26.07-14,35.25-10.64,10.64-26.34,16.36-46,16.36H49.76Zm28.73,0c17.56,0,31.66-5.45,40.71-14.5a44.66,44.66,0,0,0,12.9-32.19c0-8.91-3.06-16.36-7.85-21.15C118.8,77.35,109.62,73.62,95,73.62h-9L67.85,151.84H79.69Z"/><path class="cls-2" d="M193.13,250.4h12.11l18-78.22H196.46l-3.59,15.3h-5.19l4.66-20h69.44l-4.79,20h-5.19l3.59-15.3H228.65l-18,78.22h13.44l-1.06,4.66H191.93Z"/><line class="cls-1" x1="307.81" y1="6.26" x2="7.16" y2="306.91"/></svg>